<mxfile host="Electron" modified="2023-12-13T21:00:53.544Z" agent="Mozilla/5.0 (X11; Linux x86_64) AppleWebKit/537.36 (KHTML, like Gecko) draw.io/22.1.2 Chrome/114.0.5735.289 Electron/25.9.4 Safari/537.36" etag="Rk-MmcZGKM5RqOdI4sIL" version="22.1.2" type="device">
  <diagram name="Page-1" id="Ma0rX8Xs6on9o0V8Y3Ux">
    <mxGraphModel dx="954" dy="659" grid="1" gridSize="10" guides="1" tooltips="1" connect="1" arrows="1" fold="1" page="1" pageScale="1" pageWidth="850" pageHeight="1100" math="0" shadow="0">
      <root>
        <mxCell id="0" />
        <mxCell id="1" parent="0" />
        <mxCell id="7I0AICs2IUuTaOEYn5is-3" style="edgeStyle=orthogonalEdgeStyle;rounded=0;orthogonalLoop=1;jettySize=auto;html=1;" edge="1" parent="1" source="7I0AICs2IUuTaOEYn5is-1" target="7I0AICs2IUuTaOEYn5is-2">
          <mxGeometry relative="1" as="geometry" />
        </mxCell>
        <mxCell id="7I0AICs2IUuTaOEYn5is-1" value="Begin" style="ellipse;whiteSpace=wrap;html=1;" vertex="1" parent="1">
          <mxGeometry x="320" y="40" width="120" height="80" as="geometry" />
        </mxCell>
        <mxCell id="7I0AICs2IUuTaOEYn5is-5" style="edgeStyle=orthogonalEdgeStyle;rounded=0;orthogonalLoop=1;jettySize=auto;html=1;" edge="1" parent="1" source="7I0AICs2IUuTaOEYn5is-2" target="7I0AICs2IUuTaOEYn5is-4">
          <mxGeometry relative="1" as="geometry" />
        </mxCell>
        <mxCell id="7I0AICs2IUuTaOEYn5is-2" value="german_short_word&lt;br&gt;russian_short_word" style="shape=parallelogram;perimeter=parallelogramPerimeter;whiteSpace=wrap;html=1;fixedSize=1;" vertex="1" parent="1">
          <mxGeometry x="305" y="170" width="150" height="80" as="geometry" />
        </mxCell>
        <mxCell id="7I0AICs2IUuTaOEYn5is-7" style="edgeStyle=orthogonalEdgeStyle;rounded=0;orthogonalLoop=1;jettySize=auto;html=1;" edge="1" parent="1" source="7I0AICs2IUuTaOEYn5is-4" target="7I0AICs2IUuTaOEYn5is-6">
          <mxGeometry relative="1" as="geometry" />
        </mxCell>
        <mxCell id="7I0AICs2IUuTaOEYn5is-4" value="words = text.lower().split()" style="rounded=0;whiteSpace=wrap;html=1;" vertex="1" parent="1">
          <mxGeometry x="320" y="300" width="120" height="60" as="geometry" />
        </mxCell>
        <mxCell id="7I0AICs2IUuTaOEYn5is-20" style="edgeStyle=orthogonalEdgeStyle;rounded=0;orthogonalLoop=1;jettySize=auto;html=1;" edge="1" parent="1" source="7I0AICs2IUuTaOEYn5is-6" target="7I0AICs2IUuTaOEYn5is-8">
          <mxGeometry relative="1" as="geometry" />
        </mxCell>
        <mxCell id="7I0AICs2IUuTaOEYn5is-6" value="german_count = sum(1 for word in words if word in german_short_words)&lt;br&gt;russian_count = sum(1 for word in words if word in russian_short_words)" style="rounded=0;whiteSpace=wrap;html=1;" vertex="1" parent="1">
          <mxGeometry x="170" y="410" width="420" height="60" as="geometry" />
        </mxCell>
        <mxCell id="7I0AICs2IUuTaOEYn5is-15" style="edgeStyle=orthogonalEdgeStyle;rounded=0;orthogonalLoop=1;jettySize=auto;html=1;" edge="1" parent="1" source="7I0AICs2IUuTaOEYn5is-8" target="7I0AICs2IUuTaOEYn5is-9">
          <mxGeometry relative="1" as="geometry" />
        </mxCell>
        <mxCell id="7I0AICs2IUuTaOEYn5is-19" value="yes" style="edgeLabel;html=1;align=center;verticalAlign=middle;resizable=0;points=[];" vertex="1" connectable="0" parent="7I0AICs2IUuTaOEYn5is-15">
          <mxGeometry x="-0.32" relative="1" as="geometry">
            <mxPoint as="offset" />
          </mxGeometry>
        </mxCell>
        <mxCell id="7I0AICs2IUuTaOEYn5is-21" style="edgeStyle=orthogonalEdgeStyle;rounded=0;orthogonalLoop=1;jettySize=auto;html=1;" edge="1" parent="1" source="7I0AICs2IUuTaOEYn5is-8" target="7I0AICs2IUuTaOEYn5is-11">
          <mxGeometry relative="1" as="geometry">
            <Array as="points">
              <mxPoint x="200" y="560" />
              <mxPoint x="200" y="620" />
              <mxPoint x="380" y="620" />
            </Array>
          </mxGeometry>
        </mxCell>
        <mxCell id="7I0AICs2IUuTaOEYn5is-8" value="german_count &amp;gt; russian_count" style="rhombus;whiteSpace=wrap;html=1;" vertex="1" parent="1">
          <mxGeometry x="270" y="520" width="220" height="80" as="geometry" />
        </mxCell>
        <mxCell id="7I0AICs2IUuTaOEYn5is-16" style="edgeStyle=orthogonalEdgeStyle;rounded=0;orthogonalLoop=1;jettySize=auto;html=1;" edge="1" parent="1" source="7I0AICs2IUuTaOEYn5is-9" target="7I0AICs2IUuTaOEYn5is-10">
          <mxGeometry relative="1" as="geometry" />
        </mxCell>
        <mxCell id="7I0AICs2IUuTaOEYn5is-9" value="return language(&quot;German&quot;)" style="rounded=0;whiteSpace=wrap;html=1;" vertex="1" parent="1">
          <mxGeometry x="640" y="530" width="120" height="60" as="geometry" />
        </mxCell>
        <mxCell id="7I0AICs2IUuTaOEYn5is-10" value="End" style="ellipse;whiteSpace=wrap;html=1;" vertex="1" parent="1">
          <mxGeometry x="870" y="520" width="120" height="80" as="geometry" />
        </mxCell>
        <mxCell id="7I0AICs2IUuTaOEYn5is-14" style="edgeStyle=orthogonalEdgeStyle;rounded=0;orthogonalLoop=1;jettySize=auto;html=1;entryX=0;entryY=0.5;entryDx=0;entryDy=0;" edge="1" parent="1" source="7I0AICs2IUuTaOEYn5is-11" target="7I0AICs2IUuTaOEYn5is-12">
          <mxGeometry relative="1" as="geometry" />
        </mxCell>
        <mxCell id="7I0AICs2IUuTaOEYn5is-18" value="yes" style="edgeLabel;html=1;align=center;verticalAlign=middle;resizable=0;points=[];" vertex="1" connectable="0" parent="7I0AICs2IUuTaOEYn5is-14">
          <mxGeometry x="-0.1867" y="1" relative="1" as="geometry">
            <mxPoint as="offset" />
          </mxGeometry>
        </mxCell>
        <mxCell id="7I0AICs2IUuTaOEYn5is-23" style="edgeStyle=orthogonalEdgeStyle;rounded=0;orthogonalLoop=1;jettySize=auto;html=1;" edge="1" parent="1" source="7I0AICs2IUuTaOEYn5is-11" target="7I0AICs2IUuTaOEYn5is-22">
          <mxGeometry relative="1" as="geometry">
            <Array as="points">
              <mxPoint x="230" y="690" />
              <mxPoint x="230" y="750" />
              <mxPoint x="380" y="750" />
            </Array>
          </mxGeometry>
        </mxCell>
        <mxCell id="7I0AICs2IUuTaOEYn5is-11" value="&amp;nbsp;russian_count &amp;gt; german_count&amp;nbsp;" style="rhombus;whiteSpace=wrap;html=1;" vertex="1" parent="1">
          <mxGeometry x="270" y="650" width="220" height="80" as="geometry" />
        </mxCell>
        <mxCell id="7I0AICs2IUuTaOEYn5is-17" style="edgeStyle=orthogonalEdgeStyle;rounded=0;orthogonalLoop=1;jettySize=auto;html=1;" edge="1" parent="1" source="7I0AICs2IUuTaOEYn5is-12" target="7I0AICs2IUuTaOEYn5is-13">
          <mxGeometry relative="1" as="geometry" />
        </mxCell>
        <mxCell id="7I0AICs2IUuTaOEYn5is-12" value="return language(&quot;German&quot;)" style="rounded=0;whiteSpace=wrap;html=1;" vertex="1" parent="1">
          <mxGeometry x="640" y="660" width="120" height="60" as="geometry" />
        </mxCell>
        <mxCell id="7I0AICs2IUuTaOEYn5is-13" value="End" style="ellipse;whiteSpace=wrap;html=1;" vertex="1" parent="1">
          <mxGeometry x="870" y="650" width="120" height="80" as="geometry" />
        </mxCell>
        <mxCell id="7I0AICs2IUuTaOEYn5is-25" style="edgeStyle=orthogonalEdgeStyle;rounded=0;orthogonalLoop=1;jettySize=auto;html=1;" edge="1" parent="1" source="7I0AICs2IUuTaOEYn5is-22" target="7I0AICs2IUuTaOEYn5is-24">
          <mxGeometry relative="1" as="geometry" />
        </mxCell>
        <mxCell id="7I0AICs2IUuTaOEYn5is-22" value="return language(&quot;Unknow&quot;)" style="rounded=0;whiteSpace=wrap;html=1;" vertex="1" parent="1">
          <mxGeometry x="320" y="790" width="120" height="60" as="geometry" />
        </mxCell>
        <mxCell id="7I0AICs2IUuTaOEYn5is-24" value="End" style="ellipse;whiteSpace=wrap;html=1;" vertex="1" parent="1">
          <mxGeometry x="540" y="780" width="120" height="80" as="geometry" />
        </mxCell>
      </root>
    </mxGraphModel>
  </diagram>
</mxfile>
